<svg width="109" height="114" viewBox="0 0 109 114" fill="none" xmlns="http://www.w3.org/2000/svg">
<path d="M34.944 97.28C28.8853 97.28 23.68 96.0853 19.328 93.696C14.976 91.2213 11.6053 87.8933 9.216 83.712C6.912 79.4453 5.76 74.5813 5.76 69.12C5.76 63.9147 7.08267 59.1787 9.728 54.912C12.3733 50.6453 15.9147 47.232 20.352 44.672C24.7893 42.112 29.7387 40.832 35.2 40.832C42.1973 40.832 48 42.88 52.608 46.976C57.216 51.072 60.3307 56.704 61.952 63.872L18.304 79.232L15.488 72.192L51.328 59.136L48.768 60.8C47.744 57.984 46.0373 55.552 43.648 53.504C41.2587 51.3707 38.144 50.304 34.304 50.304C31.0613 50.304 28.16 51.1147 25.6 52.736C23.04 54.272 21.0347 56.4053 19.584 59.136C18.1333 61.8667 17.408 64.9813 17.408 68.48C17.408 72.1493 18.176 75.392 19.712 78.208C21.248 80.9387 23.3387 83.1147 25.984 84.736C28.7147 86.272 31.7867 87.04 35.2 87.04C37.504 87.04 39.7227 86.6133 41.856 85.76C44.0747 84.9067 46.1227 83.7973 48 82.432L53.504 91.264C50.8587 93.056 47.872 94.5067 44.544 95.616C41.3013 96.7253 38.1013 97.28 34.944 97.28Z" fill="#FF6E1F"/>
<mask id="path-2-outside-1_446_12" maskUnits="userSpaceOnUse" x="44" y="6" width="58" height="102" fill="black">
<rect fill="white" x="44" y="6" width="58" height="102"/>
<path d="M89.1875 106.188L80.375 97.25C77.25 98.5833 74.0417 99.25 70.75 99.25C66.2083 99.25 62.0417 98.1042 58.25 95.8125C54.4167 93.5208 51.3333 90.4167 49 86.5C46.7083 82.5417 45.5625 78.2292 45.5625 73.5625L45.6875 33C45.6875 28.4583 46.8125 24.25 49.0625 20.375C51.2708 16.5 54.2708 13.3958 58.0625 11.0625C61.8542 8.6875 66.0833 7.5 70.75 7.5C75.2917 7.5 79.4583 8.625 83.25 10.875C87.0417 13.1667 90.0625 16.2292 92.3125 20.0625C94.6042 23.8958 95.75 28.2083 95.75 33L95.875 73.5625C95.875 76.0208 95.5208 78.4167 94.8125 80.75C94.1458 83.0417 93.25 85.1667 92.125 87.125L100.062 95.1875C100.479 95.5208 100.521 95.8125 100.188 96.0625L90.125 106.188C89.8333 106.438 89.5208 106.438 89.1875 106.188ZM70.75 83.8125C73.6667 83.8125 76 82.7292 77.75 80.5625C79.5 78.3542 80.375 76.0208 80.375 73.5625L80.25 33C80.25 30.25 79.3542 27.875 77.5625 25.875C75.7708 23.875 73.5 22.875 70.75 22.875C67.875 22.875 65.5625 23.8958 63.8125 25.9375C62.0625 27.9792 61.1875 30.3333 61.1875 33V73.5625C61.1875 76.6458 62.1875 79.125 64.1875 81C66.1875 82.875 68.375 83.8125 70.75 83.8125Z"/>
</mask>
<path d="M89.1875 106.188L80.375 97.25C77.25 98.5833 74.0417 99.25 70.75 99.25C66.2083 99.25 62.0417 98.1042 58.25 95.8125C54.4167 93.5208 51.3333 90.4167 49 86.5C46.7083 82.5417 45.5625 78.2292 45.5625 73.5625L45.6875 33C45.6875 28.4583 46.8125 24.25 49.0625 20.375C51.2708 16.5 54.2708 13.3958 58.0625 11.0625C61.8542 8.6875 66.0833 7.5 70.75 7.5C75.2917 7.5 79.4583 8.625 83.25 10.875C87.0417 13.1667 90.0625 16.2292 92.3125 20.0625C94.6042 23.8958 95.75 28.2083 95.75 33L95.875 73.5625C95.875 76.0208 95.5208 78.4167 94.8125 80.75C94.1458 83.0417 93.25 85.1667 92.125 87.125L100.062 95.1875C100.479 95.5208 100.521 95.8125 100.188 96.0625L90.125 106.188C89.8333 106.438 89.5208 106.438 89.1875 106.188ZM70.75 83.8125C73.6667 83.8125 76 82.7292 77.75 80.5625C79.5 78.3542 80.375 76.0208 80.375 73.5625L80.25 33C80.25 30.25 79.3542 27.875 77.5625 25.875C75.7708 23.875 73.5 22.875 70.75 22.875C67.875 22.875 65.5625 23.8958 63.8125 25.9375C62.0625 27.9792 61.1875 30.3333 61.1875 33V73.5625C61.1875 76.6458 62.1875 79.125 64.1875 81C66.1875 82.875 68.375 83.8125 70.75 83.8125Z" fill="#FAF3E1"/>
<path d="M89.1875 106.188L88.4754 106.89L88.5278 106.943L88.5875 106.988L89.1875 106.188ZM80.375 97.25L81.0871 96.5479L80.6089 96.063L79.9826 96.3302L80.375 97.25ZM58.25 95.8125L58.7673 94.9567L58.7631 94.9542L58.25 95.8125ZM49 86.5L48.1345 87.0011L48.1409 87.0118L49 86.5ZM45.5625 73.5625L44.5625 73.5594V73.5625H45.5625ZM45.6875 33L46.6875 33.0031V33H45.6875ZM49.0625 20.375L49.9273 20.8772L49.9313 20.8701L49.0625 20.375ZM58.0625 11.0625L58.5866 11.9142L58.5933 11.91L58.0625 11.0625ZM83.25 10.875L83.7673 10.0191L83.7603 10.015L83.25 10.875ZM92.3125 20.0625L91.4501 20.5687L91.4542 20.5756L92.3125 20.0625ZM95.75 33H94.75L94.75 33.0031L95.75 33ZM95.875 73.5625H96.875L96.875 73.5594L95.875 73.5625ZM94.8125 80.75L93.8556 80.4595L93.8523 80.4707L94.8125 80.75ZM92.125 87.125L91.2579 86.6269L90.8796 87.2854L91.4124 87.8266L92.125 87.125ZM100.062 95.1875L99.3499 95.8891L99.3915 95.9313L99.4378 95.9684L100.062 95.1875ZM100.188 96.0625L99.5875 95.2625L99.5294 95.3061L99.4782 95.3576L100.188 96.0625ZM90.125 106.188L90.7758 106.947L90.8061 106.921L90.8343 106.892L90.125 106.188ZM77.75 80.5625L78.528 81.1909L78.5337 81.1836L77.75 80.5625ZM80.375 73.5625H81.375L81.375 73.5594L80.375 73.5625ZM80.25 33H79.25L79.25 33.0031L80.25 33ZM89.8996 105.485L81.0871 96.5479L79.6629 97.9521L88.4754 106.89L89.8996 105.485ZM79.9826 96.3302C76.9775 97.6124 73.9024 98.25 70.75 98.25V100.25C74.1809 100.25 77.5225 99.5543 80.7674 98.1698L79.9826 96.3302ZM70.75 98.25C66.3859 98.25 62.3988 97.1516 58.7673 94.9567L57.7327 96.6683C61.6845 99.0568 66.0308 100.25 70.75 100.25V98.25ZM58.7631 94.9542C55.0751 92.7494 52.1094 89.7656 49.8591 85.9882L48.1409 87.0118C50.5572 91.0678 53.7582 94.2923 57.7369 96.6708L58.7631 94.9542ZM49.8654 85.999C47.6638 82.1961 46.5625 78.057 46.5625 73.5625H44.5625C44.5625 78.4014 45.7529 82.8872 48.1346 87.001L49.8654 85.999ZM46.5625 73.5656L46.6875 33.0031L44.6875 32.9969L44.5625 73.5594L46.5625 73.5656ZM46.6875 33C46.6875 28.6322 47.7671 24.5975 49.9273 20.8771L48.1977 19.8729C45.8579 23.9025 44.6875 28.2845 44.6875 33H46.6875ZM49.9313 20.8701C52.0567 17.1408 54.9382 14.1593 58.5866 11.9142L57.5384 10.2108C53.6034 12.6324 50.485 15.8592 48.1937 19.8799L49.9313 20.8701ZM58.5933 11.91C62.2188 9.63905 66.2626 8.5 70.75 8.5V6.5C65.9041 6.5 61.4895 7.73595 57.5317 10.215L58.5933 11.91ZM70.75 8.5C75.1177 8.5 79.1073 9.57948 82.7397 11.735L83.7603 10.015C79.8094 7.67052 75.4656 6.5 70.75 6.5V8.5ZM82.7327 11.7308C86.3816 13.9362 89.284 16.8783 91.4501 20.5687L93.1749 19.5563C90.841 15.58 87.7017 12.3972 83.7673 10.0192L82.7327 11.7308ZM91.4542 20.5756C93.6464 24.2425 94.75 28.3754 94.75 33H96.75C96.75 28.0413 95.562 23.5491 93.1708 19.5494L91.4542 20.5756ZM94.75 33.0031L94.875 73.5656L96.875 73.5594L96.75 32.9969L94.75 33.0031ZM94.875 73.5625C94.875 75.9232 94.5351 78.2211 93.8556 80.4595L95.7694 81.0405C96.5065 78.6122 96.875 76.1184 96.875 73.5625H94.875ZM93.8523 80.4707C93.2066 82.6903 92.3411 84.7413 91.2579 86.6269L92.9921 87.6231C94.1589 85.592 95.0851 83.3931 95.7727 81.0293L93.8523 80.4707ZM91.4124 87.8266L99.3499 95.8891L100.775 94.4859L92.8376 86.4234L91.4124 87.8266ZM99.4378 95.9684C99.4971 96.0158 99.5083 96.0348 99.4983 96.021C99.4879 96.0069 99.4353 95.9308 99.4163 95.7977C99.3951 95.6492 99.4266 95.5047 99.4867 95.3931C99.5388 95.2963 99.5937 95.2578 99.5875 95.2625L100.787 96.8625C101.11 96.6204 101.489 96.1639 101.396 95.5148C101.32 94.9791 100.949 94.6159 100.687 94.4066L99.4378 95.9684ZM99.4782 95.3576L89.4157 105.483L90.8343 106.892L100.897 96.7674L99.4782 95.3576ZM89.4742 105.428C89.4678 105.434 89.4825 105.42 89.52 105.404C89.56 105.388 89.6128 105.375 89.6719 105.375C89.7941 105.375 89.8384 105.426 89.7875 105.387L88.5875 106.988C88.87 107.199 89.2372 107.375 89.6719 107.375C90.1181 107.375 90.4919 107.19 90.7758 106.947L89.4742 105.428ZM70.75 84.8125C73.9523 84.8125 76.578 83.6051 78.5279 81.1908L76.9721 79.9342C75.422 81.8533 73.381 82.8125 70.75 82.8125V84.8125ZM78.5337 81.1836C80.4023 78.8257 81.375 76.2787 81.375 73.5625H79.375C79.375 75.763 78.5977 77.8827 76.9663 79.9414L78.5337 81.1836ZM81.375 73.5594L81.25 32.9969L79.25 33.0031L79.375 73.5656L81.375 73.5594ZM81.25 33C81.25 30.0103 80.2676 27.396 78.3073 25.2078L76.8177 26.5422C78.4407 28.354 79.25 30.4897 79.25 33H81.25ZM78.3073 25.2078C76.3208 22.9902 73.7765 21.875 70.75 21.875V23.875C73.2235 23.875 75.2209 24.7598 76.8177 26.5422L78.3073 25.2078ZM70.75 21.875C67.606 21.875 65.0077 23.0066 63.0532 25.2867L64.5718 26.5883C66.1173 24.7851 68.144 23.875 70.75 23.875V21.875ZM63.0532 25.2867C61.1493 27.5079 60.1875 30.0924 60.1875 33H62.1875C62.1875 30.5742 62.9757 28.4504 64.5718 26.5883L63.0532 25.2867ZM60.1875 33V73.5625H62.1875V33H60.1875ZM60.1875 73.5625C60.1875 76.8842 61.2758 79.641 63.5036 81.7295L64.8714 80.2705C63.0992 78.609 62.1875 76.4074 62.1875 73.5625H60.1875ZM63.5036 81.7295C65.6582 83.7495 68.0818 84.8125 70.75 84.8125V82.8125C68.6682 82.8125 66.7168 82.0005 64.8714 80.2705L63.5036 81.7295Z" fill="#222222" mask="url(#path-2-outside-1_446_12)"/>
</svg>
