<svg width="566" height="564" viewBox="0 0 566 564" fill="none" xmlns="http://www.w3.org/2000/svg">
<g filter="url(#filter0_d_446_2)">
<path d="M390.37 105.25C343.859 78.3971 288.401 71.4396 236.197 85.9082C183.992 100.377 139.317 135.087 112 182.401C84.6827 229.716 76.9607 285.761 90.5327 338.206C104.105 390.65 137.859 435.2 184.37 462.053L287.37 283.651L390.37 105.25Z" fill="#222222"/>
</g>
<g filter="url(#filter1_dd_446_2)">
<path d="M381.37 101.25C427.881 128.103 461.635 172.652 475.207 225.097C488.78 277.542 481.058 333.586 453.74 380.901C426.423 428.216 381.748 462.926 329.544 477.394C277.339 491.863 221.881 484.905 175.37 458.052L278.37 279.651L381.37 101.25Z" fill="#222222"/>
</g>
<path d="M291.639 187.376C299.234 187.376 305.335 189.765 309.943 194.544C314.636 199.237 316.983 205.467 316.983 213.232V253.424C316.983 260.165 315.148 265.797 311.479 270.32C307.895 274.843 302.988 277.573 296.759 278.512C296.418 278.597 296.247 278.811 296.247 279.152V291.44C296.247 292.293 295.82 292.72 294.967 292.72H288.311C287.458 292.72 287.031 292.293 287.031 291.44V279.152C287.031 278.811 286.86 278.597 286.519 278.512C280.375 277.573 275.468 274.843 271.799 270.32C268.13 265.797 266.295 260.165 266.295 253.424V213.232C266.295 208.112 267.362 203.589 269.495 199.664C271.628 195.739 274.615 192.709 278.455 190.576C282.295 188.443 286.69 187.376 291.639 187.376ZM307.895 212.592C307.895 207.472 306.402 203.333 303.415 200.176C300.428 196.933 296.503 195.312 291.639 195.312C286.775 195.312 282.85 196.933 279.863 200.176C276.876 203.333 275.383 207.472 275.383 212.592V253.808C275.383 258.928 276.876 263.109 279.863 266.352C282.85 269.509 286.775 271.088 291.639 271.088C296.503 271.088 300.428 269.509 303.415 266.352C306.402 263.109 307.895 258.928 307.895 253.808V212.592Z" fill="#FF6E1F"/>
<path d="M271.463 312.792C271.463 313.645 271.036 314.072 270.183 314.072H240.999C240.658 314.072 240.487 314.243 240.487 314.584V323.928C240.487 327.512 241.468 330.456 243.431 332.76C245.479 334.979 248.124 336.088 251.367 336.088C254.098 336.088 256.402 335.277 258.279 333.656C260.242 331.949 261.522 329.773 262.119 327.128C262.375 326.36 262.844 325.976 263.527 325.976L269.927 326.232C270.268 326.232 270.567 326.36 270.823 326.616C271.079 326.872 271.164 327.213 271.079 327.64C270.396 332.675 268.306 336.685 264.807 339.672C261.394 342.573 256.914 344.024 251.367 344.024C245.308 344.024 240.444 342.232 236.775 338.648C233.191 335.064 231.399 330.328 231.399 324.44V296.792C231.399 290.989 233.191 286.296 236.775 282.712C240.444 279.043 245.308 277.208 251.367 277.208C257.511 277.208 262.375 279.043 265.959 282.712C269.628 286.296 271.463 290.989 271.463 296.792V312.792ZM251.367 285.144C248.124 285.144 245.479 286.296 243.431 288.6C241.468 290.819 240.487 293.763 240.487 297.432V306.008C240.487 306.349 240.658 306.52 240.999 306.52H261.991C262.332 306.52 262.503 306.349 262.503 306.008V297.432C262.503 293.763 261.479 290.819 259.431 288.6C257.383 286.296 254.695 285.144 251.367 285.144Z" fill="#FF6E1F"/>
<path d="M250.999 270L250.999 156" stroke="white" stroke-width="3" stroke-linecap="round"/>
<path d="M290.999 429L290.999 300" stroke="white" stroke-width="3" stroke-linecap="round"/>
<path d="M249.999 401L249.999 351" stroke="white" stroke-width="3" stroke-linecap="round"/>
<path d="M290.999 182L290.999 132" stroke="white" stroke-width="3" stroke-linecap="round"/>
<defs>
<filter id="filter0_d_446_2" x="70.9893" y="68.5205" width="332.381" height="409.532" filterUnits="userSpaceOnUse" color-interpolation-filters="sRGB">
<feFlood flood-opacity="0" result="BackgroundImageFix"/>
<feColorMatrix in="SourceAlpha" type="matrix" values="0 0 0 0 0 0 0 0 0 0 0 0 0 0 0 0 0 0 127 0" result="hardAlpha"/>
<feOffset dy="3"/>
<feGaussianBlur stdDeviation="6.5"/>
<feComposite in2="hardAlpha" operator="out"/>
<feColorMatrix type="matrix" values="0 0 0 0 0 0 0 0 0 0 0 0 0 0 0 0 0 0 0.74 0"/>
<feBlend mode="normal" in2="BackgroundImageFix" result="effect1_dropShadow_446_2"/>
<feBlend mode="normal" in="SourceGraphic" in2="effect1_dropShadow_446_2" result="shape"/>
</filter>
<filter id="filter1_dd_446_2" x="138.77" y="66.65" width="363.581" height="440.732" filterUnits="userSpaceOnUse" color-interpolation-filters="sRGB">
<feFlood flood-opacity="0" result="BackgroundImageFix"/>
<feColorMatrix in="SourceAlpha" type="matrix" values="0 0 0 0 0 0 0 0 0 0 0 0 0 0 0 0 0 0 127 0" result="hardAlpha"/>
<feOffset dy="3"/>
<feGaussianBlur stdDeviation="6.5"/>
<feComposite in2="hardAlpha" operator="out"/>
<feColorMatrix type="matrix" values="0 0 0 0 0 0 0 0 0 0 0 0 0 0 0 0 0 0 0.74 0"/>
<feBlend mode="normal" in2="BackgroundImageFix" result="effect1_dropShadow_446_2"/>
<feColorMatrix in="SourceAlpha" type="matrix" values="0 0 0 0 0 0 0 0 0 0 0 0 0 0 0 0 0 0 127 0" result="hardAlpha"/>
<feOffset dx="-8" dy="-6"/>
<feGaussianBlur stdDeviation="14.3"/>
<feComposite in2="hardAlpha" operator="out"/>
<feColorMatrix type="matrix" values="0 0 0 0 0 0 0 0 0 0 0 0 0 0 0 0 0 0 0.25 0"/>
<feBlend mode="normal" in2="effect1_dropShadow_446_2" result="effect2_dropShadow_446_2"/>
<feBlend mode="normal" in="SourceGraphic" in2="effect2_dropShadow_446_2" result="shape"/>
</filter>
</defs>
</svg>
